# xmcd
#
# Track frame offsets: 
#        150
#        10395
#        19555
#        30822
#        44040
#        54120
#        63875
#        73337
#        86392
#        95332
#        99637
#        109362
#        116112
#        136865
#        140475
#        154120
#        168220
#        170885
#        180602
#        202577
#        215555
#        219480
#
# Disc length: 3153 seconds
#
# Revision: 0
# Processed by: cddbd v1.5.2PL0 Copyright (c) Steve Scherf et al.
# Submitted via: ExactAudioCopy v0.95b4
#
DISCID=2e0c4f16
DTITLE=Robert Marcel Lepage - Les Clarinettes ont-elles un Escalier de
DTITLE=Secours?
DYEAR=1900
DGENRE=Country
TTITLE0=Les Clarinettes Du Pharaon
TTITLE1=Rock Around The Cloche
TTITLE2=1229 Clarinettistes A Prague
TTITLE3=Les Clarinettes Sont Cuites
TTITLE4=Le Choeur Des Anches
TTITLE5=La Marque Du M
TTITLE6=Mustang Dimitri
TTITLE7=Il Parlait Avec Les Poissons, Les Oiseaux, Les Mammiferes
TTITLE8=Email Blue
TTITLE9=Embouchure Embuscade
TTITLE10=Techno Pita
TTITLE11=Zorbanlieu
TTITLE12=Clar'ilette Noire
TTITLE13=La Valse Des Epouses (Moi Aussi, J'en Ai Une A La Maison)
TTITLE14=Tortillas Pour Une Clarinette
TTITLE15=Meanwhile, Back In Prague
TTITLE16=Mes Petites Juives
TTITLE17=Tintin Au Rajasthan
TTITLE18=Saharinette
TTITLE19=Fatal Destin (Un Greg A La Cabane A Sucre)
TTITLE20=La Clarinette En Mille Miettes
TTITLE21=Portrait En Clarinettes Courtes (Alors Que Tous Les Gars De M
TTITLE21=on Age Se Mettaient A La Gutare)
EXTD=
EXTT0=
EXTT1=
EXTT2=
EXTT3=
EXTT4=
EXTT5=
EXTT6=
EXTT7=
EXTT8=
EXTT9=
EXTT10=
EXTT11=
EXTT12=
EXTT13=
EXTT14=
EXTT15=
EXTT16=
EXTT17=
EXTT18=
EXTT19=
EXTT20=
EXTT21=
PLAYORDER=
